<svg version="1.1" id="Layer_1" xmlns="http://www.w3.org/2000/svg" xmlns:xlink="http://www.w3.org/1999/xlink" x="0px" y="0px"
	 width="100%" viewBox="0 0 248 310" enable-background="new 0 0 248 310" xml:space="preserve">
<path fill="#FFFFFF" opacity="1.000000" stroke="none" 
	d="
M1.000000,119.000000 
	C1.000000,79.333336 1.000000,40.166676 1.000000,1.000010 
	C83.666649,1.000007 166.333298,1.000007 248.999969,1.000004 
	C248.999969,104.333305 248.999969,207.666611 248.999985,310.999939 
	C166.333374,310.999939 83.666740,310.999939 1.000055,310.999969 
	C1.000000,247.166672 1.000000,183.333328 1.000000,119.000000 
M130.500000,293.892792 
	C157.819138,293.892731 185.138306,293.917358 212.457397,293.878937 
	C221.862717,293.865723 226.506607,288.328217 225.249176,279.149475 
	C219.421600,236.610779 213.691391,194.058701 207.858032,151.520798 
	C203.991989,123.328773 200.046616,95.147469 196.055878,66.972824 
	C195.035843,59.771374 190.785294,56.231308 183.484467,56.115482 
	C180.486771,56.067921 177.487701,56.107231 174.489258,56.107201 
	C168.228561,56.107132 161.967865,56.107178 155.029282,56.107178 
	C155.029282,49.510082 155.089798,43.697021 155.016953,37.885632 
	C154.855774,25.028000 144.987991,15.239365 132.087387,15.116149 
	C126.590729,15.063649 121.093163,15.104604 115.596008,15.107685 
	C100.059753,15.116393 90.682961,24.430990 90.638649,39.910236 
	C90.623627,45.159164 90.636261,50.408169 90.636261,56.107510 
	C80.402313,56.107510 70.935455,56.062885 61.469234,56.121830 
	C54.084770,56.167812 49.952389,59.535793 48.872921,66.882927 
	C46.720230,81.534698 44.760445,96.215775 42.831013,110.899208 
	C35.481289,166.832321 28.152821,222.768265 20.873310,278.710541 
	C19.518440,289.122559 23.914324,293.888763 34.549206,293.890717 
	C66.199471,293.896515 97.849739,293.892731 130.500000,293.892792 
z"/>
<path fill="#F05379" opacity="1.000000" stroke="none" 
	d="
M130.000000,293.892731 
	C97.849739,293.892731 66.199471,293.896515 34.549206,293.890717 
	C23.914324,293.888763 19.518440,289.122559 20.873310,278.710541 
	C28.152821,222.768265 35.481289,166.832321 42.831013,110.899208 
	C44.760445,96.215775 46.720230,81.534698 48.872921,66.882927 
	C49.952389,59.535793 54.084770,56.167812 61.469234,56.121830 
	C70.935455,56.062885 80.402313,56.107510 90.636261,56.107510 
	C90.636261,50.408169 90.623627,45.159164 90.638649,39.910236 
	C90.682961,24.430990 100.059753,15.116393 115.596008,15.107685 
	C121.093163,15.104604 126.590729,15.063649 132.087387,15.116149 
	C144.987991,15.239365 154.855774,25.028000 155.016953,37.885632 
	C155.089798,43.697021 155.029282,49.510082 155.029282,56.107178 
	C161.967865,56.107178 168.228561,56.107132 174.489258,56.107201 
	C177.487701,56.107231 180.486771,56.067921 183.484467,56.115482 
	C190.785294,56.231308 195.035843,59.771374 196.055878,66.972824 
	C200.046616,95.147469 203.991989,123.328773 207.858032,151.520798 
	C213.691391,194.058701 219.421600,236.610779 225.249176,279.149475 
	C226.506607,288.328217 221.862717,293.865723 212.457397,293.878937 
	C185.138306,293.917358 157.819138,293.892731 130.000000,293.892731 
M110.500046,82.679359 
	C92.510933,82.679474 74.521034,82.766716 56.533394,82.603943 
	C53.063889,82.572556 51.485073,83.406784 51.055012,87.093018 
	C49.531845,100.148804 47.705360,113.169235 45.987976,126.202293 
	C41.140099,162.992416 36.285156,199.781601 31.442400,236.572403 
	C30.124802,246.582245 28.840481,256.596466 27.491646,266.988037 
	C91.328613,266.988037 154.512817,266.988037 217.815674,266.988037 
	C217.815674,265.520630 217.948364,264.365173 217.796661,263.248413 
	C209.844940,204.713120 201.836349,146.185516 193.968353,87.639015 
	C193.434158,83.664024 191.916275,82.555840 187.953659,82.584686 
	C162.470245,82.770157 136.984818,82.679146 110.500046,82.679359 
M62.499989,288.845520 
	C111.453423,288.845551 160.406860,288.845795 209.360291,288.845306 
	C219.393661,288.845215 221.497650,286.314178 219.844742,276.545197 
	C219.389862,273.856781 218.441269,272.444824 215.370560,272.592285 
	C210.386826,272.831635 205.383163,272.655640 200.387924,272.655640 
	C144.274643,272.655548 88.161354,272.647339 32.048122,272.694366 
	C30.318750,272.695831 27.179064,273.045410 27.088446,273.613861 
	C26.474878,277.462860 25.753664,281.602631 26.665415,285.248749 
	C27.082096,286.915100 31.088377,288.579285 33.533485,288.684021 
	C42.840878,289.082733 52.175522,288.845154 62.499989,288.845520 
M160.500000,61.154240 
	C144.669052,61.154224 128.838104,61.154163 113.007156,61.154209 
	C96.176361,61.154259 79.345497,61.180431 62.514824,61.134666 
	C58.709381,61.124321 55.302307,61.965729 54.242855,66.018547 
	C53.341198,69.467735 53.192200,73.113670 52.675159,76.931381 
	C99.507851,76.931381 145.702454,76.931381 192.242401,76.931381 
	C191.940384,74.518097 191.772217,72.539680 191.435165,70.590477 
	C189.948273,61.991863 188.913864,61.156448 179.997208,61.154465 
	C173.831467,61.153095 167.665741,61.154320 160.500000,61.154240 
M125.500000,56.109756 
	C133.595139,56.109756 141.690262,56.109756 149.971817,56.109756 
	C149.971817,50.065624 149.976044,44.757099 149.968079,39.448597 
	C149.966583,38.449631 149.998978,37.440468 149.876053,36.453407 
	C148.732162,27.267757 141.623123,20.651323 132.359146,20.400419 
	C125.864143,20.224512 119.354942,20.196499 112.862183,20.409773 
	C104.708824,20.677589 97.265945,26.556913 96.343040,34.482525 
	C95.528259,41.479645 96.172462,48.646664 96.172462,56.109852 
	C105.889412,56.109852 115.194710,56.109852 125.500000,56.109756 
z"/>
<path fill="#FFFFFF" opacity="1.000000" stroke="none" 
	d="
M111.000053,82.679153 
	C136.984818,82.679146 162.470245,82.770157 187.953659,82.584686 
	C191.916275,82.555840 193.434158,83.664024 193.968353,87.639015 
	C201.836349,146.185516 209.844940,204.713120 217.796661,263.248413 
	C217.948364,264.365173 217.815674,265.520630 217.815674,266.988037 
	C154.512817,266.988037 91.328613,266.988037 27.491646,266.988037 
	C28.840481,256.596466 30.124802,246.582245 31.442400,236.572403 
	C36.285156,199.781601 41.140099,162.992416 45.987976,126.202293 
	C47.705360,113.169235 49.531845,100.148804 51.055012,87.093018 
	C51.485073,83.406784 53.063889,82.572556 56.533394,82.603943 
	C74.521034,82.766716 92.510933,82.679474 111.000053,82.679153 
M105.848709,197.005310 
	C117.310959,197.005142 128.774506,197.086014 140.233810,196.902069 
	C141.662155,196.879135 143.067978,195.453537 144.484253,194.677902 
	C143.022812,193.783585 141.575134,192.140732 140.097763,192.113571 
	C128.473328,191.899765 116.841698,191.905060 105.216614,192.100189 
	C103.634888,192.126755 102.077080,193.578171 100.508202,194.369858 
	C101.988518,195.248276 103.468826,196.126709 105.848709,197.005310 
M108.846611,168.225540 
	C112.620880,167.024277 114.603485,164.168854 113.221237,160.665359 
	C112.394302,158.569397 109.597473,156.354874 107.349411,155.915253 
	C103.521843,155.166748 100.961876,157.876526 100.853462,161.694199 
	C100.721886,166.327271 103.527382,168.543716 108.846611,168.225540 
M132.709534,159.456604 
	C131.464722,162.654358 132.019501,165.707642 135.061111,167.148148 
	C136.985352,168.059433 140.164413,168.277100 141.819595,167.252823 
	C143.488678,166.219955 144.850601,163.206253 144.708542,161.175018 
	C144.582397,159.371155 142.544891,157.021912 140.753067,156.167450 
	C137.822525,154.769989 134.932709,155.869583 132.709534,159.456604 
z"/>
<path fill="#FEF7F9" opacity="1.000000" stroke="none" 
	d="
M61.999985,288.845459 
	C52.175522,288.845154 42.840878,289.082733 33.533485,288.684021 
	C31.088377,288.579285 27.082096,286.915100 26.665415,285.248749 
	C25.753664,281.602631 26.474878,277.462860 27.088446,273.613861 
	C27.179064,273.045410 30.318750,272.695831 32.048122,272.694366 
	C88.161354,272.647339 144.274643,272.655548 200.387924,272.655640 
	C205.383163,272.655640 210.386826,272.831635 215.370560,272.592285 
	C218.441269,272.444824 219.389862,273.856781 219.844742,276.545197 
	C221.497650,286.314178 219.393661,288.845215 209.360291,288.845306 
	C160.406860,288.845795 111.453423,288.845551 61.999985,288.845459 
z"/>
<path fill="#FFF" opacity="1.000000" stroke="none" 
	d="
M161.000000,61.154312 
	C167.665741,61.154320 173.831467,61.153095 179.997208,61.154465 
	C188.913864,61.156448 189.948273,61.991863 191.435165,70.590477 
	C191.772217,72.539680 191.940384,74.518097 192.242401,76.931381 
	C145.702454,76.931381 99.507851,76.931381 52.675159,76.931381 
	C53.192200,73.113670 53.341198,69.467735 54.242855,66.018547 
	C55.302307,61.965729 58.709381,61.124321 62.514824,61.134666 
	C79.345497,61.180431 96.176361,61.154259 113.007156,61.154209 
	C128.838104,61.154163 144.669052,61.154224 161.000000,61.154312 
z"/>
<path fill="#FFFEFE" opacity="1.000000" stroke="none" 
	d="
M125.000000,56.109802 
	C115.194710,56.109852 105.889412,56.109852 96.172462,56.109852 
	C96.172462,48.646664 95.528259,41.479645 96.343040,34.482525 
	C97.265945,26.556913 104.708824,20.677589 112.862183,20.409773 
	C119.354942,20.196499 125.864143,20.224512 132.359146,20.400419 
	C141.623123,20.651323 148.732162,27.267757 149.876053,36.453407 
	C149.998978,37.440468 149.966583,38.449631 149.968079,39.448597 
	C149.976044,44.757099 149.971817,50.065624 149.971817,56.109756 
	C141.690262,56.109756 133.595139,56.109756 125.000000,56.109802 
z"/>
<path fill="#EF4971" opacity="1.000000" stroke="none" 
	d="
M105.398926,197.005219 
	C103.468826,196.126709 101.988518,195.248276 100.508202,194.369858 
	C102.077080,193.578171 103.634888,192.126755 105.216614,192.100189 
	C116.841698,191.905060 128.473328,191.899765 140.097763,192.113571 
	C141.575134,192.140732 143.022812,193.783585 144.484253,194.677902 
	C143.067978,195.453537 141.662155,196.879135 140.233810,196.902069 
	C128.774506,197.086014 117.310959,197.005142 105.398926,197.005219 
z"/>
<path fill="#F04E75" opacity="1.000000" stroke="none" 
	d="
M108.494705,168.327026 
	C103.527382,168.543716 100.721886,166.327271 100.853462,161.694199 
	C100.961876,157.876526 103.521843,155.166748 107.349411,155.915253 
	C109.597473,156.354874 112.394302,158.569397 113.221237,160.665359 
	C114.603485,164.168854 112.620880,167.024277 108.494705,168.327026 
z"/>
<path fill="#F04E75" opacity="1.000000" stroke="none" 
	d="
M132.876984,159.117554 
	C134.932709,155.869583 137.822525,154.769989 140.753067,156.167450 
	C142.544891,157.021912 144.582397,159.371155 144.708542,161.175018 
	C144.850601,163.206253 143.488678,166.219955 141.819595,167.252823 
	C140.164413,168.277100 136.985352,168.059433 135.061111,167.148148 
	C132.019501,165.707642 131.464722,162.654358 132.876984,159.117554 
z"/>
</svg>